<svg xmlns="http://www.w3.org/2000/svg" viewBox="0 0 880 440" width="880" height="440" font-family="system-ui,Segoe UI,Arial,sans-serif" font-size="11"><rect width="880" height="440" fill="#fff"/><text x="70" y="18" font-size="13" font-weight="600" fill="#111827">SYNTHETIC: LC · ROCHE-DEMO-A / cool_rate </text><line x1="70" x2="710" y1="365.1724137931034" y2="365.1724137931034" stroke="#e5e7eb"/><text x="64" y="368.6724137931034" text-anchor="end" fill="#6b7280">2.1</text><line x1="70" x2="710" y1="301.2772489670348" y2="301.2772489670348" stroke="#e5e7eb"/><text x="64" y="304.7772489670348" text-anchor="end" fill="#6b7280">2.2</text><line x1="70" x2="710" y1="237.38208414096644" y2="237.38208414096644" stroke="#e5e7eb"/><text x="64" y="240.88208414096644" text-anchor="end" fill="#6b7280">2.3</text><line x1="70" x2="710" y1="173.48691931489782" y2="173.48691931489782" stroke="#e5e7eb"/><text x="64" y="176.98691931489782" text-anchor="end" fill="#6b7280">2.4</text><line x1="70" x2="710" y1="109.59175448882917" y2="109.59175448882917" stroke="#e5e7eb"/><text x="64" y="113.09175448882917" text-anchor="end" fill="#6b7280">2.5</text><line x1="70" x2="710" y1="45.69658966276057" y2="45.69658966276057" stroke="#e5e7eb"/><text x="64" y="49.19658966276057" text-anchor="end" fill="#6b7280">2.6</text><line x1="83.43279216030423" x2="83.43279216030423" y1="390" y2="394" stroke="#9ca3af"/><text x="83.43279216030423" y="406" text-anchor="middle" fill="#6b7280">0</text><line x1="177.0410998976159" x2="177.0410998976159" y1="390" y2="394" stroke="#9ca3af"/><text x="177.0410998976159" y="406" text-anchor="middle" fill="#6b7280">20</text><line x1="270.64940763492757" x2="270.64940763492757" y1="390" y2="394" stroke="#9ca3af"/><text x="270.64940763492757" y="406" text-anchor="middle" fill="#6b7280">40</text><line x1="364.25771537223926" x2="364.25771537223926" y1="390" y2="394" stroke="#9ca3af"/><text x="364.25771537223926" y="406" text-anchor="middle" fill="#6b7280">60</text><line x1="457.86602310955095" x2="457.86602310955095" y1="390" y2="394" stroke="#9ca3af"/><text x="457.86602310955095" y="406" text-anchor="middle" fill="#6b7280">80</text><line x1="551.4743308468626" x2="551.4743308468626" y1="390" y2="394" stroke="#9ca3af"/><text x="551.4743308468626" y="406" text-anchor="middle" fill="#6b7280">100</text><line x1="645.0826385841743" x2="645.0826385841743" y1="390" y2="394" stroke="#9ca3af"/><text x="645.0826385841743" y="406" text-anchor="middle" fill="#6b7280">120</text><rect x="70" y="30" width="640" height="360" fill="none" stroke="#9ca3af"/><text x="390" y="432" text-anchor="middle" fill="#374151">Run (in date order)</text><text transform="translate(16 210) rotate(-90)" text-anchor="middle" fill="#374151">°C/s</text><defs><clipPath id="pc12"><rect x="70" y="30" width="640" height="360"/></clipPath></defs><g clip-path="url(#pc12)"><polyline fill="none" stroke="#94a3b8" stroke-width="1" stroke-opacity="0.9" points="88.1,148.8 92.8,124.5 97.5,197.2 102.2,143.4 106.8,203.1 111.5,157.4 116.2,197.0 120.9,149.4 125.6,162.9 130.2,200.0 134.9,161.1 139.6,141.1 144.3,157.6 149.0,183.2 153.6,193.2 158.3,178.9 163.0,143.6 167.7,147.6 172.4,148.8 177.0,150.0 181.7,189.8 186.4,173.2 191.1,176.3 195.8,152.3 200.4,157.9 205.1,172.3 209.8,165.5 214.5,176.4 219.2,190.0 223.8,171.4 228.5,170.7 233.2,216.0 237.9,194.9 242.6,181.2 247.2,145.2 251.9,188.3 256.6,195.4 261.3,199.0 266.0,136.4 270.6,181.3 275.3,165.8 280.0,145.9 284.7,186.4 289.4,134.7 294.1,160.2 298.7,209.6 303.4,162.4 308.1,148.6 312.8,149.3 317.5,181.7 322.1,162.1 326.8,152.4 331.5,139.8 336.2,143.8 340.9,200.5 345.5,178.1 350.2,139.7 354.9,178.5 359.6,233.6 364.3,200.6 368.9,181.4 373.6,182.5 378.3,155.6 383.0,104.6 387.7,133.5 392.3,165.9 397.0,166.4 401.7,200.9 406.4,177.1 411.1,171.3 415.7,179.8 420.4,136.8 425.1,167.5 429.8,142.1 434.5,203.2 439.1,151.2 443.8,226.9 448.5,178.7 453.2,206.4 457.9,195.9 462.5,147.4 467.2,129.7 471.9,132.3 476.6,162.3 481.3,164.7 485.9,160.3 490.6,121.9 495.3,173.1 500.0,140.1 504.7,181.4 509.4,169.5 514.0,162.2 518.7,189.5 523.4,199.2 528.1,124.6 532.8,106.2 537.4,157.5 542.1,179.1 546.8,137.8 551.5,164.7 556.2,145.9 560.8,140.8 565.5,211.6 570.2,212.8 574.9,174.2 579.6,176.6 584.2,190.2 588.9,118.3 593.6,197.1 598.3,163.4 603.0,170.6 607.6,199.2 612.3,154.9 617.0,171.9 621.7,126.3 626.4,157.0 631.0,149.2 635.7,125.4 640.4,187.2 645.1,170.7 649.8,166.0 654.4,203.9 659.1,189.1 663.8,145.0 668.5,150.7 673.2,166.6 677.8,213.9 682.5,130.0 687.2,185.1 691.9,177.3"><title></title></polyline><polyline fill="none" stroke="#dc2626" stroke-width="1.2" stroke-opacity="0.9" stroke-dasharray="6 4" points="88.1,94.8 92.8,94.5 97.5,94.1 102.2,93.8 106.8,93.5 111.5,93.2 116.2,92.9 120.9,92.6 125.6,92.3 130.2,92.0 134.9,91.7 139.6,91.4 144.3,91.0 149.0,90.7 153.6,90.4 158.3,90.1 163.0,89.8 167.7,89.5 172.4,89.2 177.0,88.9 181.7,88.6 186.4,88.3 191.1,88.0 195.8,87.6 200.4,87.3 205.1,87.0 209.8,86.7 214.5,86.4 219.2,86.1 223.8,85.8 228.5,85.5 233.2,85.2 237.9,84.9 242.6,84.5 247.2,84.2 251.9,83.9 256.6,83.6 261.3,83.3 266.0,83.0 270.6,82.7 275.3,82.4 280.0,82.1 284.7,81.8 289.4,81.5 294.1,81.1 298.7,80.8 303.4,80.5 308.1,80.2 312.8,79.9 317.5,79.6 322.1,79.3 326.8,79.0 331.5,78.7 336.2,78.4 340.9,78.0 345.5,77.7 350.2,77.4 354.9,77.1 359.6,76.8 364.3,76.5 368.9,76.2 373.6,75.9 378.3,75.6 383.0,75.3 387.7,75.0 392.3,74.6 397.0,74.3 401.7,74.0 406.4,73.7 411.1,73.4 415.7,73.1 420.4,72.8 425.1,72.5 429.8,72.2 434.5,71.9 439.1,71.5 443.8,71.2 448.5,70.9 453.2,70.6 457.9,70.3 462.5,70.0 467.2,69.7 471.9,69.4 476.6,69.1 481.3,68.8 485.9,68.4 490.6,68.1 495.3,67.8 500.0,67.5 504.7,67.2 509.4,66.9 514.0,66.6 518.7,66.3 523.4,66.0 528.1,65.7 532.8,65.4 537.4,65.0 542.1,64.7 546.8,64.4 551.5,64.1 556.2,63.8 560.8,63.5 565.5,63.2 570.2,62.9 574.9,62.6 579.6,62.3 584.2,61.9 588.9,61.6 593.6,61.3 598.3,61.0 603.0,60.7 607.6,60.4 612.3,60.1 617.0,59.8 621.7,59.5 626.4,59.2 631.0,58.9 635.7,58.5 640.4,58.2 645.1,57.9 649.8,57.6 654.4,57.3 659.1,57.0 663.8,56.7 668.5,56.4 673.2,56.1 677.8,55.8 682.5,55.4 687.2,55.1 691.9,54.8"><title></title></polyline><polyline fill="none" stroke="#dc2626" stroke-width="1.2" stroke-opacity="0.9" stroke-dasharray="6 4" points="88.1,240.0 92.8,239.7 97.5,239.4 102.2,239.1 106.8,238.7 111.5,238.4 116.2,238.1 120.9,237.8 125.6,237.5 130.2,237.2 134.9,236.9 139.6,236.6 144.3,236.3 149.0,236.0 153.6,235.7 158.3,235.3 163.0,235.0 167.7,234.7 172.4,234.4 177.0,234.1 181.7,233.8 186.4,233.5 191.1,233.2 195.8,232.9 200.4,232.6 205.1,232.2 209.8,231.9 214.5,231.6 219.2,231.3 223.8,231.0 228.5,230.7 233.2,230.4 237.9,230.1 242.6,229.8 247.2,229.5 251.9,229.1 256.6,228.8 261.3,228.5 266.0,228.2 270.6,227.9 275.3,227.6 280.0,227.3 284.7,227.0 289.4,226.7 294.1,226.4 298.7,226.1 303.4,225.7 308.1,225.4 312.8,225.1 317.5,224.8 322.1,224.5 326.8,224.2 331.5,223.9 336.2,223.6 340.9,223.3 345.5,223.0 350.2,222.6 354.9,222.3 359.6,222.0 364.3,221.7 368.9,221.4 373.6,221.1 378.3,220.8 383.0,220.5 387.7,220.2 392.3,219.9 397.0,219.6 401.7,219.2 406.4,218.9 411.1,218.6 415.7,218.3 420.4,218.0 425.1,217.7 429.8,217.4 434.5,217.1 439.1,216.8 443.8,216.5 448.5,216.1 453.2,215.8 457.9,215.5 462.5,215.2 467.2,214.9 471.9,214.6 476.6,214.3 481.3,214.0 485.9,213.7 490.6,213.4 495.3,213.1 500.0,212.7 504.7,212.4 509.4,212.1 514.0,211.8 518.7,211.5 523.4,211.2 528.1,210.9 532.8,210.6 537.4,210.3 542.1,210.0 546.8,209.6 551.5,209.3 556.2,209.0 560.8,208.7 565.5,208.4 570.2,208.1 574.9,207.8 579.6,207.5 584.2,207.2 588.9,206.9 593.6,206.5 598.3,206.2 603.0,205.9 607.6,205.6 612.3,205.3 617.0,205.0 621.7,204.7 626.4,204.4 631.0,204.1 635.7,203.8 640.4,203.5 645.1,203.1 649.8,202.8 654.4,202.5 659.1,202.2 663.8,201.9 668.5,201.6 673.2,201.3 677.8,201.0 682.5,200.7 687.2,200.4 691.9,200.0"><title></title></polyline><polyline fill="none" stroke="#16a34a" stroke-width="1.2" stroke-opacity="0.9" points="88.1,167.4 92.8,167.1 97.5,166.8 102.2,166.4 106.8,166.1 111.5,165.8 116.2,165.5 120.9,165.2 125.6,164.9 130.2,164.6 134.9,164.3 139.6,164.0 144.3,163.7 149.0,163.4 153.6,163.0 158.3,162.7 163.0,162.4 167.7,162.1 172.4,161.8 177.0,161.5 181.7,161.2 186.4,160.9 191.1,160.6 195.8,160.3 200.4,159.9 205.1,159.6 209.8,159.3 214.5,159.0 219.2,158.7 223.8,158.4 228.5,158.1 233.2,157.8 237.9,157.5 242.6,157.2 247.2,156.8 251.9,156.5 256.6,156.2 261.3,155.9 266.0,155.6 270.6,155.3 275.3,155.0 280.0,154.7 284.7,154.4 289.4,154.1 294.1,153.8 298.7,153.4 303.4,153.1 308.1,152.8 312.8,152.5 317.5,152.2 322.1,151.9 326.8,151.6 331.5,151.3 336.2,151.0 340.9,150.7 345.5,150.3 350.2,150.0 354.9,149.7 359.6,149.4 364.3,149.1 368.9,148.8 373.6,148.5 378.3,148.2 383.0,147.9 387.7,147.6 392.3,147.3 397.0,146.9 401.7,146.6 406.4,146.3 411.1,146.0 415.7,145.7 420.4,145.4 425.1,145.1 429.8,144.8 434.5,144.5 439.1,144.2 443.8,143.8 448.5,143.5 453.2,143.2 457.9,142.9 462.5,142.6 467.2,142.3 471.9,142.0 476.6,141.7 481.3,141.4 485.9,141.1 490.6,140.8 495.3,140.4 500.0,140.1 504.7,139.8 509.4,139.5 514.0,139.2 518.7,138.9 523.4,138.6 528.1,138.3 532.8,138.0 537.4,137.7 542.1,137.3 546.8,137.0 551.5,136.7 556.2,136.4 560.8,136.1 565.5,135.8 570.2,135.5 574.9,135.2 579.6,134.9 584.2,134.6 588.9,134.2 593.6,133.9 598.3,133.6 603.0,133.3 607.6,133.0 612.3,132.7 617.0,132.4 621.7,132.1 626.4,131.8 631.0,131.5 635.7,131.2 640.4,130.8 645.1,130.5 649.8,130.2 654.4,129.9 659.1,129.6 663.8,129.3 668.5,129.0 673.2,128.7 677.8,128.4 682.5,128.1 687.2,127.7 691.9,127.4"><title></title></polyline><circle cx="88.1" cy="148.8" r="4" fill="#2563eb" fill-opacity="0.85" stroke="#fff" stroke-width="0.6"><title>SYNTHETIC_ROCHE_A_0001 · 2024-01-01 11:00 · Synthetic operator (unassigned)
2.439 °C/s</title></circle><circle cx="92.8" cy="124.5" r="4" fill="#2563eb" fill-opacity="0.85" stroke="#fff" stroke-width="0.6"><title>SYNTHETIC_ROCHE_A_0002 · 2024-01-05 11:00 · Synthetic operator (unassigned)
2.477 °C/s</title></circle><circle cx="97.5" cy="197.2" r="4" fill="#2563eb" fill-opacity="0.85" stroke="#fff" stroke-width="0.6"><title>SYNTHETIC_ROCHE_A_0003 · 2024-01-09 11:00 · Synthetic operator (unassigned)
2.363 °C/s</title></circle><circle cx="102.2" cy="143.4" r="4" fill="#2563eb" fill-opacity="0.85" stroke="#fff" stroke-width="0.6"><title>SYNTHETIC_ROCHE_A_0004 · 2024-01-13 11:00 · Synthetic operator (unassigned)
2.447 °C/s</title></circle><circle cx="106.8" cy="203.1" r="4" fill="#2563eb" fill-opacity="0.85" stroke="#fff" stroke-width="0.6"><title>SYNTHETIC_ROCHE_A_0005 · 2024-01-17 11:00 · Synthetic operator (unassigned)
2.354 °C/s</title></circle><circle cx="111.5" cy="157.4" r="4" fill="#2563eb" fill-opacity="0.85" stroke="#fff" stroke-width="0.6"><title>SYNTHETIC_ROCHE_A_0006 · 2024-01-21 11:00 · Synthetic operator (unassigned)
2.425 °C/s</title></circle><circle cx="116.2" cy="197.0" r="4" fill="#2563eb" fill-opacity="0.85" stroke="#fff" stroke-width="0.6"><title>SYNTHETIC_ROCHE_A_0007 · 2024-01-25 11:00 · Synthetic operator (unassigned)
2.363 °C/s</title></circle><circle cx="120.9" cy="149.4" r="4" fill="#2563eb" fill-opacity="0.85" stroke="#fff" stroke-width="0.6"><title>SYNTHETIC_ROCHE_A_0008 · 2024-01-29 11:00 · Synthetic operator (unassigned)
2.438 °C/s</title></circle><circle cx="125.6" cy="162.9" r="4" fill="#2563eb" fill-opacity="0.85" stroke="#fff" stroke-width="0.6"><title>SYNTHETIC_ROCHE_A_0009 · 2024-02-02 11:00 · Synthetic operator (unassigned)
2.417 °C/s</title></circle><circle cx="130.2" cy="200.0" r="4" fill="#2563eb" fill-opacity="0.85" stroke="#fff" stroke-width="0.6"><title>SYNTHETIC_ROCHE_A_0010 · 2024-02-06 11:00 · Synthetic operator (unassigned)
2.359 °C/s</title></circle><circle cx="134.9" cy="161.1" r="4" fill="#2563eb" fill-opacity="0.85" stroke="#fff" stroke-width="0.6"><title>SYNTHETIC_ROCHE_A_0011 · 2024-02-10 11:00 · Synthetic operator (unassigned)
2.419 °C/s</title></circle><circle cx="139.6" cy="141.1" r="4" fill="#2563eb" fill-opacity="0.85" stroke="#fff" stroke-width="0.6"><title>SYNTHETIC_ROCHE_A_0012 · 2024-02-14 11:00 · Synthetic operator (unassigned)
2.451 °C/s</title></circle><circle cx="144.3" cy="157.6" r="4" fill="#2563eb" fill-opacity="0.85" stroke="#fff" stroke-width="0.6"><title>SYNTHETIC_ROCHE_A_0013 · 2024-02-18 11:00 · Synthetic operator (unassigned)
2.425 °C/s</title></circle><circle cx="149.0" cy="183.2" r="4" fill="#2563eb" fill-opacity="0.85" stroke="#fff" stroke-width="0.6"><title>SYNTHETIC_ROCHE_A_0014 · 2024-02-22 11:00 · Synthetic operator (unassigned)
2.385 °C/s</title></circle><circle cx="153.6" cy="193.2" r="4" fill="#2563eb" fill-opacity="0.85" stroke="#fff" stroke-width="0.6"><title>SYNTHETIC_ROCHE_A_0015 · 2024-02-26 11:00 · Synthetic operator (unassigned)
2.369 °C/s</title></circle><circle cx="158.3" cy="178.9" r="4" fill="#2563eb" fill-opacity="0.85" stroke="#fff" stroke-width="0.6"><title>SYNTHETIC_ROCHE_A_0016 · 2024-03-01 11:00 · Synthetic operator (unassigned)
2.392 °C/s</title></circle><circle cx="163.0" cy="143.6" r="4" fill="#2563eb" fill-opacity="0.85" stroke="#fff" stroke-width="0.6"><title>SYNTHETIC_ROCHE_A_0017 · 2024-03-05 11:00 · Synthetic operator (unassigned)
2.447 °C/s</title></circle><circle cx="167.7" cy="147.6" r="4" fill="#2563eb" fill-opacity="0.85" stroke="#fff" stroke-width="0.6"><title>SYNTHETIC_ROCHE_A_0018 · 2024-03-09 11:00 · Synthetic operator (unassigned)
2.441 °C/s</title></circle><circle cx="172.4" cy="148.8" r="4" fill="#2563eb" fill-opacity="0.85" stroke="#fff" stroke-width="0.6"><title>SYNTHETIC_ROCHE_A_0019 · 2024-03-13 11:00 · Synthetic operator (unassigned)
2.439 °C/s</title></circle><circle cx="177.0" cy="150.0" r="4" fill="#2563eb" fill-opacity="0.85" stroke="#fff" stroke-width="0.6"><title>SYNTHETIC_ROCHE_A_0020 · 2024-03-17 11:00 · Synthetic operator (unassigned)
2.437 °C/s</title></circle><circle cx="181.7" cy="189.8" r="4" fill="#2563eb" fill-opacity="0.85" stroke="#fff" stroke-width="0.6"><title>SYNTHETIC_ROCHE_A_0021 · 2024-03-21 11:00 · Synthetic operator (unassigned)
2.375 °C/s</title></circle><circle cx="186.4" cy="173.2" r="4" fill="#2563eb" fill-opacity="0.85" stroke="#fff" stroke-width="0.6"><title>SYNTHETIC_ROCHE_A_0022 · 2024-03-25 11:00 · Synthetic operator (unassigned)
2.4 °C/s</title></circle><circle cx="191.1" cy="176.3" r="4" fill="#2563eb" fill-opacity="0.85" stroke="#fff" stroke-width="0.6"><title>SYNTHETIC_ROCHE_A_0023 · 2024-03-29 11:00 · Synthetic operator (unassigned)
2.396 °C/s</title></circle><circle cx="195.8" cy="152.3" r="4" fill="#2563eb" fill-opacity="0.85" stroke="#fff" stroke-width="0.6"><title>SYNTHETIC_ROCHE_A_0024 · 2024-04-02 12:00 · Synthetic operator (unassigned)
2.433 °C/s</title></circle><circle cx="200.4" cy="157.9" r="4" fill="#2563eb" fill-opacity="0.85" stroke="#fff" stroke-width="0.6"><title>SYNTHETIC_ROCHE_A_0025 · 2024-04-06 12:00 · Synthetic operator (unassigned)
2.424 °C/s</title></circle><circle cx="205.1" cy="172.3" r="4" fill="#2563eb" fill-opacity="0.85" stroke="#fff" stroke-width="0.6"><title>SYNTHETIC_ROCHE_A_0026 · 2024-04-10 12:00 · Synthetic operator (unassigned)
2.402 °C/s</title></circle><circle cx="209.8" cy="165.5" r="4" fill="#2563eb" fill-opacity="0.85" stroke="#fff" stroke-width="0.6"><title>SYNTHETIC_ROCHE_A_0027 · 2024-04-14 12:00 · Synthetic operator (unassigned)
2.413 °C/s</title></circle><circle cx="214.5" cy="176.4" r="4" fill="#2563eb" fill-opacity="0.85" stroke="#fff" stroke-width="0.6"><title>SYNTHETIC_ROCHE_A_0028 · 2024-04-18 12:00 · Synthetic operator (unassigned)
2.396 °C/s</title></circle><circle cx="219.2" cy="190.0" r="4" fill="#2563eb" fill-opacity="0.85" stroke="#fff" stroke-width="0.6"><title>SYNTHETIC_ROCHE_A_0029 · 2024-04-22 12:00 · Synthetic operator (unassigned)
2.374 °C/s</title></circle><circle cx="223.8" cy="171.4" r="4" fill="#2563eb" fill-opacity="0.85" stroke="#fff" stroke-width="0.6"><title>SYNTHETIC_ROCHE_A_0030 · 2024-04-26 12:00 · Synthetic operator (unassigned)
2.403 °C/s</title></circle><circle cx="228.5" cy="170.7" r="4" fill="#2563eb" fill-opacity="0.85" stroke="#fff" stroke-width="0.6"><title>SYNTHETIC_ROCHE_A_0031 · 2024-04-30 12:00 · Synthetic operator (unassigned)
2.404 °C/s</title></circle><circle cx="233.2" cy="216.0" r="4" fill="#2563eb" fill-opacity="0.85" stroke="#fff" stroke-width="0.6"><title>SYNTHETIC_ROCHE_A_0032 · 2024-05-04 12:00 · Synthetic operator (unassigned)
2.333 °C/s</title></circle><circle cx="237.9" cy="194.9" r="4" fill="#2563eb" fill-opacity="0.85" stroke="#fff" stroke-width="0.6"><title>SYNTHETIC_ROCHE_A_0033 · 2024-05-08 12:00 · Synthetic operator (unassigned)
2.367 °C/s</title></circle><circle cx="242.6" cy="181.2" r="4" fill="#2563eb" fill-opacity="0.85" stroke="#fff" stroke-width="0.6"><title>SYNTHETIC_ROCHE_A_0034 · 2024-05-12 12:00 · Synthetic operator (unassigned)
2.388 °C/s</title></circle><circle cx="247.2" cy="145.2" r="4" fill="#2563eb" fill-opacity="0.85" stroke="#fff" stroke-width="0.6"><title>SYNTHETIC_ROCHE_A_0035 · 2024-05-16 12:00 · Synthetic operator (unassigned)
2.444 °C/s</title></circle><circle cx="251.9" cy="188.3" r="4" fill="#2563eb" fill-opacity="0.85" stroke="#fff" stroke-width="0.6"><title>SYNTHETIC_ROCHE_A_0036 · 2024-05-20 12:00 · Synthetic operator (unassigned)
2.377 °C/s</title></circle><circle cx="256.6" cy="195.4" r="4" fill="#2563eb" fill-opacity="0.85" stroke="#fff" stroke-width="0.6"><title>SYNTHETIC_ROCHE_A_0037 · 2024-05-24 12:00 · Synthetic operator (unassigned)
2.366 °C/s</title></circle><circle cx="261.3" cy="199.0" r="4" fill="#2563eb" fill-opacity="0.85" stroke="#fff" stroke-width="0.6"><title>SYNTHETIC_ROCHE_A_0038 · 2024-05-28 12:00 · Synthetic operator (unassigned)
2.36 °C/s</title></circle><circle cx="266.0" cy="136.4" r="4" fill="#2563eb" fill-opacity="0.85" stroke="#fff" stroke-width="0.6"><title>SYNTHETIC_ROCHE_A_0039 · 2024-06-01 12:00 · Synthetic operator (unassigned)
2.458 °C/s</title></circle><circle cx="270.6" cy="181.3" r="4" fill="#2563eb" fill-opacity="0.85" stroke="#fff" stroke-width="0.6"><title>SYNTHETIC_ROCHE_A_0040 · 2024-06-05 12:00 · Synthetic operator (unassigned)
2.388 °C/s</title></circle><circle cx="275.3" cy="165.8" r="4" fill="#2563eb" fill-opacity="0.85" stroke="#fff" stroke-width="0.6"><title>SYNTHETIC_ROCHE_A_0041 · 2024-06-09 12:00 · Synthetic operator (unassigned)
2.412 °C/s</title></circle><circle cx="280.0" cy="145.9" r="4" fill="#2563eb" fill-opacity="0.85" stroke="#fff" stroke-width="0.6"><title>SYNTHETIC_ROCHE_A_0042 · 2024-06-13 12:00 · Synthetic operator (unassigned)
2.443 °C/s</title></circle><circle cx="284.7" cy="186.4" r="4" fill="#2563eb" fill-opacity="0.85" stroke="#fff" stroke-width="0.6"><title>SYNTHETIC_ROCHE_A_0043 · 2024-06-17 12:00 · Synthetic operator (unassigned)
2.38 °C/s</title></circle><circle cx="289.4" cy="134.7" r="4" fill="#2563eb" fill-opacity="0.85" stroke="#fff" stroke-width="0.6"><title>SYNTHETIC_ROCHE_A_0044 · 2024-06-21 12:00 · Synthetic operator (unassigned)
2.461 °C/s</title></circle><circle cx="294.1" cy="160.2" r="4" fill="#2563eb" fill-opacity="0.85" stroke="#fff" stroke-width="0.6"><title>SYNTHETIC_ROCHE_A_0045 · 2024-06-25 12:00 · Synthetic operator (unassigned)
2.421 °C/s</title></circle><circle cx="298.7" cy="209.6" r="4" fill="#2563eb" fill-opacity="0.85" stroke="#fff" stroke-width="0.6"><title>SYNTHETIC_ROCHE_A_0046 · 2024-06-29 12:00 · Synthetic operator (unassigned)
2.343 °C/s</title></circle><circle cx="303.4" cy="162.4" r="4" fill="#2563eb" fill-opacity="0.85" stroke="#fff" stroke-width="0.6"><title>SYNTHETIC_ROCHE_A_0047 · 2024-07-03 12:00 · Synthetic operator (unassigned)
2.417 °C/s</title></circle><circle cx="308.1" cy="148.6" r="4" fill="#2563eb" fill-opacity="0.85" stroke="#fff" stroke-width="0.6"><title>SYNTHETIC_ROCHE_A_0048 · 2024-07-07 12:00 · Synthetic operator (unassigned)
2.439 °C/s</title></circle><circle cx="312.8" cy="149.3" r="4" fill="#2563eb" fill-opacity="0.85" stroke="#fff" stroke-width="0.6"><title>SYNTHETIC_ROCHE_A_0049 · 2024-07-11 12:00 · Synthetic operator (unassigned)
2.438 °C/s</title></circle><circle cx="317.5" cy="181.7" r="4" fill="#2563eb" fill-opacity="0.85" stroke="#fff" stroke-width="0.6"><title>SYNTHETIC_ROCHE_A_0050 · 2024-07-15 12:00 · Synthetic operator (unassigned)
2.387 °C/s</title></circle><circle cx="322.1" cy="162.1" r="4" fill="#2563eb" fill-opacity="0.85" stroke="#fff" stroke-width="0.6"><title>SYNTHETIC_ROCHE_A_0051 · 2024-07-19 12:00 · Synthetic operator (unassigned)
2.418 °C/s</title></circle><circle cx="326.8" cy="152.4" r="4" fill="#2563eb" fill-opacity="0.85" stroke="#fff" stroke-width="0.6"><title>SYNTHETIC_ROCHE_A_0052 · 2024-07-23 12:00 · Synthetic operator (unassigned)
2.433 °C/s</title></circle><circle cx="331.5" cy="139.8" r="4" fill="#2563eb" fill-opacity="0.85" stroke="#fff" stroke-width="0.6"><title>SYNTHETIC_ROCHE_A_0053 · 2024-07-27 12:00 · Synthetic operator (unassigned)
2.453 °C/s</title></circle><circle cx="336.2" cy="143.8" r="4" fill="#2563eb" fill-opacity="0.85" stroke="#fff" stroke-width="0.6"><title>SYNTHETIC_ROCHE_A_0054 · 2024-07-31 12:00 · Synthetic operator (unassigned)
2.446 °C/s</title></circle><circle cx="340.9" cy="200.5" r="4" fill="#2563eb" fill-opacity="0.85" stroke="#fff" stroke-width="0.6"><title>SYNTHETIC_ROCHE_A_0055 · 2024-08-04 12:00 · Synthetic operator (unassigned)
2.358 °C/s</title></circle><circle cx="345.5" cy="178.1" r="4" fill="#2563eb" fill-opacity="0.85" stroke="#fff" stroke-width="0.6"><title>SYNTHETIC_ROCHE_A_0056 · 2024-08-08 12:00 · Synthetic operator (unassigned)
2.393 °C/s</title></circle><circle cx="350.2" cy="139.7" r="4" fill="#2563eb" fill-opacity="0.85" stroke="#fff" stroke-width="0.6"><title>SYNTHETIC_ROCHE_A_0057 · 2024-08-12 12:00 · Synthetic operator (unassigned)
2.453 °C/s</title></circle><circle cx="354.9" cy="178.5" r="4" fill="#2563eb" fill-opacity="0.85" stroke="#fff" stroke-width="0.6"><title>SYNTHETIC_ROCHE_A_0058 · 2024-08-16 12:00 · Synthetic operator (unassigned)
2.392 °C/s</title></circle><circle cx="359.6" cy="233.6" r="4" fill="#dc2626" fill-opacity="0.85" stroke="#fff" stroke-width="0.6"><title>SYNTHETIC_ROCHE_A_0059 · 2024-08-20 12:00 · Synthetic operator (unassigned)
2.306 °C/s
⚠ off the trend line (3σ)</title></circle><circle cx="364.3" cy="200.6" r="4" fill="#2563eb" fill-opacity="0.85" stroke="#fff" stroke-width="0.6"><title>SYNTHETIC_ROCHE_A_0060 · 2024-08-24 12:00 · Synthetic operator (unassigned)
2.358 °C/s</title></circle><circle cx="368.9" cy="181.4" r="4" fill="#2563eb" fill-opacity="0.85" stroke="#fff" stroke-width="0.6"><title>SYNTHETIC_ROCHE_A_0061 · 2024-08-28 12:00 · Synthetic operator (unassigned)
2.388 °C/s</title></circle><circle cx="373.6" cy="182.5" r="4" fill="#2563eb" fill-opacity="0.85" stroke="#fff" stroke-width="0.6"><title>SYNTHETIC_ROCHE_A_0062 · 2024-09-01 12:00 · Synthetic operator (unassigned)
2.386 °C/s</title></circle><circle cx="378.3" cy="155.6" r="4" fill="#2563eb" fill-opacity="0.85" stroke="#fff" stroke-width="0.6"><title>SYNTHETIC_ROCHE_A_0063 · 2024-09-05 12:00 · Synthetic operator (unassigned)
2.428 °C/s</title></circle><circle cx="383.0" cy="104.6" r="4" fill="#2563eb" fill-opacity="0.85" stroke="#fff" stroke-width="0.6"><title>SYNTHETIC_ROCHE_A_0064 · 2024-09-09 12:00 · Synthetic operator (unassigned)
2.508 °C/s</title></circle><circle cx="387.7" cy="133.5" r="4" fill="#2563eb" fill-opacity="0.85" stroke="#fff" stroke-width="0.6"><title>SYNTHETIC_ROCHE_A_0065 · 2024-09-13 12:00 · Synthetic operator (unassigned)
2.463 °C/s</title></circle><circle cx="392.3" cy="165.9" r="4" fill="#2563eb" fill-opacity="0.85" stroke="#fff" stroke-width="0.6"><title>SYNTHETIC_ROCHE_A_0066 · 2024-09-17 12:00 · Synthetic operator (unassigned)
2.412 °C/s</title></circle><circle cx="397.0" cy="166.4" r="4" fill="#2563eb" fill-opacity="0.85" stroke="#fff" stroke-width="0.6"><title>SYNTHETIC_ROCHE_A_0067 · 2024-09-21 12:00 · Synthetic operator (unassigned)
2.411 °C/s</title></circle><circle cx="401.7" cy="200.9" r="4" fill="#2563eb" fill-opacity="0.85" stroke="#fff" stroke-width="0.6"><title>SYNTHETIC_ROCHE_A_0068 · 2024-09-25 12:00 · Synthetic operator (unassigned)
2.357 °C/s</title></circle><circle cx="406.4" cy="177.1" r="4" fill="#2563eb" fill-opacity="0.85" stroke="#fff" stroke-width="0.6"><title>SYNTHETIC_ROCHE_A_0069 · 2024-09-29 12:00 · Synthetic operator (unassigned)
2.394 °C/s</title></circle><circle cx="411.1" cy="171.3" r="4" fill="#2563eb" fill-opacity="0.85" stroke="#fff" stroke-width="0.6"><title>SYNTHETIC_ROCHE_A_0070 · 2024-10-03 12:00 · Synthetic operator (unassigned)
2.403 °C/s</title></circle><circle cx="415.7" cy="179.8" r="4" fill="#2563eb" fill-opacity="0.85" stroke="#fff" stroke-width="0.6"><title>SYNTHETIC_ROCHE_A_0071 · 2024-10-07 12:00 · Synthetic operator (unassigned)
2.39 °C/s</title></circle><circle cx="420.4" cy="136.8" r="4" fill="#2563eb" fill-opacity="0.85" stroke="#fff" stroke-width="0.6"><title>SYNTHETIC_ROCHE_A_0072 · 2024-10-11 12:00 · Synthetic operator (unassigned)
2.457 °C/s</title></circle><circle cx="425.1" cy="167.5" r="4" fill="#2563eb" fill-opacity="0.85" stroke="#fff" stroke-width="0.6"><title>SYNTHETIC_ROCHE_A_0073 · 2024-10-15 12:00 · Synthetic operator (unassigned)
2.409 °C/s</title></circle><circle cx="429.8" cy="142.1" r="4" fill="#2563eb" fill-opacity="0.85" stroke="#fff" stroke-width="0.6"><title>SYNTHETIC_ROCHE_A_0074 · 2024-10-19 12:00 · Synthetic operator (unassigned)
2.449 °C/s</title></circle><circle cx="434.5" cy="203.2" r="4" fill="#2563eb" fill-opacity="0.85" stroke="#fff" stroke-width="0.6"><title>SYNTHETIC_ROCHE_A_0075 · 2024-10-23 12:00 · Synthetic operator (unassigned)
2.354 °C/s</title></circle><circle cx="439.1" cy="151.2" r="4" fill="#2563eb" fill-opacity="0.85" stroke="#fff" stroke-width="0.6"><title>SYNTHETIC_ROCHE_A_0076 · 2024-10-27 11:00 · Synthetic operator (unassigned)
2.435 °C/s</title></circle><circle cx="443.8" cy="226.9" r="4" fill="#dc2626" fill-opacity="0.85" stroke="#fff" stroke-width="0.6"><title>SYNTHETIC_ROCHE_A_0077 · 2024-10-31 11:00 · Synthetic operator (unassigned)
2.316 °C/s
⚠ off the trend line (3σ)</title></circle><circle cx="448.5" cy="178.7" r="4" fill="#2563eb" fill-opacity="0.85" stroke="#fff" stroke-width="0.6"><title>SYNTHETIC_ROCHE_A_0078 · 2024-11-04 11:00 · Synthetic operator (unassigned)
2.392 °C/s</title></circle><circle cx="453.2" cy="206.4" r="4" fill="#2563eb" fill-opacity="0.85" stroke="#fff" stroke-width="0.6"><title>SYNTHETIC_ROCHE_A_0079 · 2024-11-08 11:00 · Synthetic operator (unassigned)
2.348 °C/s</title></circle><circle cx="457.9" cy="195.9" r="4" fill="#2563eb" fill-opacity="0.85" stroke="#fff" stroke-width="0.6"><title>SYNTHETIC_ROCHE_A_0080 · 2024-11-12 11:00 · Synthetic operator (unassigned)
2.365 °C/s</title></circle><circle cx="462.5" cy="147.4" r="4" fill="#2563eb" fill-opacity="0.85" stroke="#fff" stroke-width="0.6"><title>SYNTHETIC_ROCHE_A_0081 · 2024-11-16 11:00 · Synthetic operator (unassigned)
2.441 °C/s</title></circle><circle cx="467.2" cy="129.7" r="4" fill="#2563eb" fill-opacity="0.85" stroke="#fff" stroke-width="0.6"><title>SYNTHETIC_ROCHE_A_0082 · 2024-11-20 11:00 · Synthetic operator (unassigned)
2.469 °C/s</title></circle><circle cx="471.9" cy="132.3" r="4" fill="#2563eb" fill-opacity="0.85" stroke="#fff" stroke-width="0.6"><title>SYNTHETIC_ROCHE_A_0083 · 2024-11-24 11:00 · Synthetic operator (unassigned)
2.464 °C/s</title></circle><circle cx="476.6" cy="162.3" r="4" fill="#2563eb" fill-opacity="0.85" stroke="#fff" stroke-width="0.6"><title>SYNTHETIC_ROCHE_A_0084 · 2024-11-28 11:00 · Synthetic operator (unassigned)
2.417 °C/s</title></circle><circle cx="481.3" cy="164.7" r="4" fill="#2563eb" fill-opacity="0.85" stroke="#fff" stroke-width="0.6"><title>SYNTHETIC_ROCHE_A_0085 · 2024-12-02 11:00 · Synthetic operator (unassigned)
2.414 °C/s</title></circle><circle cx="485.9" cy="160.3" r="4" fill="#2563eb" fill-opacity="0.85" stroke="#fff" stroke-width="0.6"><title>SYNTHETIC_ROCHE_A_0086 · 2024-12-06 11:00 · Synthetic operator (unassigned)
2.421 °C/s</title></circle><circle cx="490.6" cy="121.9" r="4" fill="#2563eb" fill-opacity="0.85" stroke="#fff" stroke-width="0.6"><title>SYNTHETIC_ROCHE_A_0087 · 2024-12-10 11:00 · Synthetic operator (unassigned)
2.481 °C/s</title></circle><circle cx="495.3" cy="173.1" r="4" fill="#2563eb" fill-opacity="0.85" stroke="#fff" stroke-width="0.6"><title>SYNTHETIC_ROCHE_A_0088 · 2024-12-14 11:00 · Synthetic operator (unassigned)
2.401 °C/s</title></circle><circle cx="500.0" cy="140.1" r="4" fill="#2563eb" fill-opacity="0.85" stroke="#fff" stroke-width="0.6"><title>SYNTHETIC_ROCHE_A_0089 · 2024-12-18 11:00 · Synthetic operator (unassigned)
2.452 °C/s</title></circle><circle cx="504.7" cy="181.4" r="4" fill="#2563eb" fill-opacity="0.85" stroke="#fff" stroke-width="0.6"><title>SYNTHETIC_ROCHE_A_0090 · 2024-12-22 11:00 · Synthetic operator (unassigned)
2.388 °C/s</title></circle><circle cx="509.4" cy="169.5" r="4" fill="#2563eb" fill-opacity="0.85" stroke="#fff" stroke-width="0.6"><title>SYNTHETIC_ROCHE_A_0091 · 2024-12-26 11:00 · Synthetic operator (unassigned)
2.406 °C/s</title></circle><circle cx="514.0" cy="162.2" r="4" fill="#2563eb" fill-opacity="0.85" stroke="#fff" stroke-width="0.6"><title>SYNTHETIC_ROCHE_A_0092 · 2024-12-30 11:00 · Synthetic operator (unassigned)
2.418 °C/s</title></circle><circle cx="518.7" cy="189.5" r="4" fill="#2563eb" fill-opacity="0.85" stroke="#fff" stroke-width="0.6"><title>SYNTHETIC_ROCHE_A_0093 · 2025-01-03 11:00 · Synthetic operator (unassigned)
2.375 °C/s</title></circle><circle cx="523.4" cy="199.2" r="4" fill="#2563eb" fill-opacity="0.85" stroke="#fff" stroke-width="0.6"><title>SYNTHETIC_ROCHE_A_0094 · 2025-01-07 11:00 · Synthetic operator (unassigned)
2.36 °C/s</title></circle><circle cx="528.1" cy="124.6" r="4" fill="#2563eb" fill-opacity="0.85" stroke="#fff" stroke-width="0.6"><title>SYNTHETIC_ROCHE_A_0095 · 2025-01-11 11:00 · Synthetic operator (unassigned)
2.477 °C/s</title></circle><circle cx="532.8" cy="106.2" r="4" fill="#2563eb" fill-opacity="0.85" stroke="#fff" stroke-width="0.6"><title>SYNTHETIC_ROCHE_A_0096 · 2025-01-15 11:00 · Synthetic operator (unassigned)
2.505 °C/s</title></circle><circle cx="537.4" cy="157.5" r="4" fill="#2563eb" fill-opacity="0.85" stroke="#fff" stroke-width="0.6"><title>SYNTHETIC_ROCHE_A_0097 · 2025-01-19 11:00 · Synthetic operator (unassigned)
2.425 °C/s</title></circle><circle cx="542.1" cy="179.1" r="4" fill="#2563eb" fill-opacity="0.85" stroke="#fff" stroke-width="0.6"><title>SYNTHETIC_ROCHE_A_0098 · 2025-01-23 11:00 · Synthetic operator (unassigned)
2.391 °C/s</title></circle><circle cx="546.8" cy="137.8" r="4" fill="#2563eb" fill-opacity="0.85" stroke="#fff" stroke-width="0.6"><title>SYNTHETIC_ROCHE_A_0099 · 2025-01-27 11:00 · Synthetic operator (unassigned)
2.456 °C/s</title></circle><circle cx="551.5" cy="164.7" r="4" fill="#2563eb" fill-opacity="0.85" stroke="#fff" stroke-width="0.6"><title>SYNTHETIC_ROCHE_A_0100 · 2025-01-31 11:00 · Synthetic operator (unassigned)
2.414 °C/s</title></circle><circle cx="556.2" cy="145.9" r="4" fill="#2563eb" fill-opacity="0.85" stroke="#fff" stroke-width="0.6"><title>SYNTHETIC_ROCHE_A_0101 · 2025-02-04 11:00 · Synthetic operator (unassigned)
2.443 °C/s</title></circle><circle cx="560.8" cy="140.8" r="4" fill="#2563eb" fill-opacity="0.85" stroke="#fff" stroke-width="0.6"><title>SYNTHETIC_ROCHE_A_0102 · 2025-02-08 11:00 · Synthetic operator (unassigned)
2.451 °C/s</title></circle><circle cx="565.5" cy="211.6" r="4" fill="#dc2626" fill-opacity="0.85" stroke="#fff" stroke-width="0.6"><title>SYNTHETIC_ROCHE_A_0103 · 2025-02-12 11:00 · Synthetic operator (unassigned)
2.34 °C/s
⚠ off the trend line (3σ)</title></circle><circle cx="570.2" cy="212.8" r="4" fill="#dc2626" fill-opacity="0.85" stroke="#fff" stroke-width="0.6"><title>SYNTHETIC_ROCHE_A_0104 · 2025-02-16 11:00 · Synthetic operator (unassigned)
2.338 °C/s
⚠ off the trend line (3σ)</title></circle><circle cx="574.9" cy="174.2" r="4" fill="#2563eb" fill-opacity="0.85" stroke="#fff" stroke-width="0.6"><title>SYNTHETIC_ROCHE_A_0105 · 2025-02-20 11:00 · Synthetic operator (unassigned)
2.399 °C/s</title></circle><circle cx="579.6" cy="176.6" r="4" fill="#2563eb" fill-opacity="0.85" stroke="#fff" stroke-width="0.6"><title>SYNTHETIC_ROCHE_A_0106 · 2025-02-24 11:00 · Synthetic operator (unassigned)
2.395 °C/s</title></circle><circle cx="584.2" cy="190.2" r="4" fill="#2563eb" fill-opacity="0.85" stroke="#fff" stroke-width="0.6"><title>SYNTHETIC_ROCHE_A_0107 · 2025-02-28 11:00 · Synthetic operator (unassigned)
2.374 °C/s</title></circle><circle cx="588.9" cy="118.3" r="4" fill="#2563eb" fill-opacity="0.85" stroke="#fff" stroke-width="0.6"><title>SYNTHETIC_ROCHE_A_0108 · 2025-03-04 11:00 · Synthetic operator (unassigned)
2.486 °C/s</title></circle><circle cx="593.6" cy="197.1" r="4" fill="#2563eb" fill-opacity="0.85" stroke="#fff" stroke-width="0.6"><title>SYNTHETIC_ROCHE_A_0109 · 2025-03-08 11:00 · Synthetic operator (unassigned)
2.363 °C/s</title></circle><circle cx="598.3" cy="163.4" r="4" fill="#2563eb" fill-opacity="0.85" stroke="#fff" stroke-width="0.6"><title>SYNTHETIC_ROCHE_A_0110 · 2025-03-12 11:00 · Synthetic operator (unassigned)
2.416 °C/s</title></circle><circle cx="603.0" cy="170.6" r="4" fill="#2563eb" fill-opacity="0.85" stroke="#fff" stroke-width="0.6"><title>SYNTHETIC_ROCHE_A_0111 · 2025-03-16 11:00 · Synthetic operator (unassigned)
2.404 °C/s</title></circle><circle cx="607.6" cy="199.2" r="4" fill="#2563eb" fill-opacity="0.85" stroke="#fff" stroke-width="0.6"><title>SYNTHETIC_ROCHE_A_0112 · 2025-03-20 11:00 · Synthetic operator (unassigned)
2.36 °C/s</title></circle><circle cx="612.3" cy="154.9" r="4" fill="#2563eb" fill-opacity="0.85" stroke="#fff" stroke-width="0.6"><title>SYNTHETIC_ROCHE_A_0113 · 2025-03-24 11:00 · Synthetic operator (unassigned)
2.429 °C/s</title></circle><circle cx="617.0" cy="171.9" r="4" fill="#2563eb" fill-opacity="0.85" stroke="#fff" stroke-width="0.6"><title>SYNTHETIC_ROCHE_A_0114 · 2025-03-28 11:00 · Synthetic operator (unassigned)
2.403 °C/s</title></circle><circle cx="621.7" cy="126.3" r="4" fill="#2563eb" fill-opacity="0.85" stroke="#fff" stroke-width="0.6"><title>SYNTHETIC_ROCHE_A_0115 · 2025-04-01 12:00 · Synthetic operator (unassigned)
2.474 °C/s</title></circle><circle cx="626.4" cy="157.0" r="4" fill="#2563eb" fill-opacity="0.85" stroke="#fff" stroke-width="0.6"><title>SYNTHETIC_ROCHE_A_0116 · 2025-04-05 12:00 · Synthetic operator (unassigned)
2.426 °C/s</title></circle><circle cx="631.0" cy="149.2" r="4" fill="#2563eb" fill-opacity="0.85" stroke="#fff" stroke-width="0.6"><title>SYNTHETIC_ROCHE_A_0117 · 2025-04-09 12:00 · Synthetic operator (unassigned)
2.438 °C/s</title></circle><circle cx="635.7" cy="125.4" r="4" fill="#2563eb" fill-opacity="0.85" stroke="#fff" stroke-width="0.6"><title>SYNTHETIC_ROCHE_A_0118 · 2025-04-13 12:00 · Synthetic operator (unassigned)
2.475 °C/s</title></circle><circle cx="640.4" cy="187.2" r="4" fill="#2563eb" fill-opacity="0.85" stroke="#fff" stroke-width="0.6"><title>SYNTHETIC_ROCHE_A_0119 · 2025-04-17 12:00 · Synthetic operator (unassigned)
2.378 °C/s</title></circle><circle cx="645.1" cy="170.7" r="4" fill="#2563eb" fill-opacity="0.85" stroke="#fff" stroke-width="0.6"><title>SYNTHETIC_ROCHE_A_0120 · 2025-04-21 12:00 · Synthetic operator (unassigned)
2.404 °C/s</title></circle><circle cx="649.8" cy="166.0" r="4" fill="#2563eb" fill-opacity="0.85" stroke="#fff" stroke-width="0.6"><title>SYNTHETIC_ROCHE_A_0121 · 2025-04-25 12:00 · Synthetic operator (unassigned)
2.412 °C/s</title></circle><circle cx="654.4" cy="203.9" r="4" fill="#dc2626" fill-opacity="0.85" stroke="#fff" stroke-width="0.6"><title>SYNTHETIC_ROCHE_A_0122 · 2025-04-29 12:00 · Synthetic operator (unassigned)
2.352 °C/s
⚠ off the trend line (3σ)</title></circle><circle cx="659.1" cy="189.1" r="4" fill="#2563eb" fill-opacity="0.85" stroke="#fff" stroke-width="0.6"><title>SYNTHETIC_ROCHE_A_0123 · 2025-05-03 12:00 · Synthetic operator (unassigned)
2.376 °C/s</title></circle><circle cx="663.8" cy="145.0" r="4" fill="#2563eb" fill-opacity="0.85" stroke="#fff" stroke-width="0.6"><title>SYNTHETIC_ROCHE_A_0124 · 2025-05-07 12:00 · Synthetic operator (unassigned)
2.445 °C/s</title></circle><circle cx="668.5" cy="150.7" r="4" fill="#2563eb" fill-opacity="0.85" stroke="#fff" stroke-width="0.6"><title>SYNTHETIC_ROCHE_A_0125 · 2025-05-11 12:00 · Synthetic operator (unassigned)
2.436 °C/s</title></circle><circle cx="673.2" cy="166.6" r="4" fill="#2563eb" fill-opacity="0.85" stroke="#fff" stroke-width="0.6"><title>SYNTHETIC_ROCHE_A_0126 · 2025-05-15 12:00 · Synthetic operator (unassigned)
2.411 °C/s</title></circle><circle cx="677.8" cy="213.9" r="4" fill="#dc2626" fill-opacity="0.85" stroke="#fff" stroke-width="0.6"><title>SYNTHETIC_ROCHE_A_0127 · 2025-05-19 12:00 · Synthetic operator (unassigned)
2.337 °C/s
⚠ off the trend line (3σ)</title></circle><circle cx="682.5" cy="130.0" r="4" fill="#2563eb" fill-opacity="0.85" stroke="#fff" stroke-width="0.6"><title>SYNTHETIC_ROCHE_A_0128 · 2025-05-23 12:00 · Synthetic operator (unassigned)
2.468 °C/s</title></circle><circle cx="687.2" cy="185.1" r="4" fill="#2563eb" fill-opacity="0.85" stroke="#fff" stroke-width="0.6"><title>SYNTHETIC_ROCHE_A_0129 · 2025-05-27 12:00 · Synthetic operator (unassigned)
2.382 °C/s</title></circle><circle cx="691.9" cy="177.3" r="4" fill="#2563eb" fill-opacity="0.85" stroke="#fff" stroke-width="0.6"><title>SYNTHETIC_ROCHE_A_0130 · 2025-05-31 12:00 · Synthetic operator (unassigned)
2.394 °C/s</title></circle></g><line x1="70" x2="710" y1="365.1724137931034" y2="365.1724137931034" stroke="#7f1d1d" stroke-dasharray="2 2" stroke-width="1.2"/><text x="706" y="361.1724137931034" text-anchor="end" fill="#7f1d1d">lower spec 2.1</text><rect x="722" y="34" width="11" height="11" rx="2" fill="#2563eb"/><text x="738" y="43.5" fill="#374151">in control</text><rect x="722" y="50" width="11" height="11" rx="2" fill="#dc2626"/><text x="738" y="59.5" fill="#374151">alarm</text><rect x="722" y="66" width="11" height="11" rx="2" fill="#16a34a"/><text x="738" y="75.5" fill="#374151">centre / fitted line</text><rect x="722" y="82" width="11" height="11" rx="2" fill="#dc2626"/><text x="738" y="91.5" fill="#374151">control limits</text></svg>